<?xml version="1.0" encoding="UTF-8"?><svg xmlns="http://www.w3.org/2000/svg" width="1200" height="675" viewBox="0 0 1200 675"><g id="Caption"><rect width="1200" height="675" fill="#fff"/><g><rect x="36" y="639" width="18" height="18" fill="#6faddf"/><text transform="translate(62 653.63)" font-family="ArialMT, Arial" font-size="16.09"><tspan x="0" y="0">NX</tspan><tspan x="22.35" y="0" letter-spacing="-.02em">P </tspan><tspan x="36.98" y="0" letter-spacing="-.11em">T</tspan><tspan x="45.02" y="0">echnology</tspan></text></g></g><g id="_33VIO-CAN-BD-01"><g><line x1="435.29" y1="75.33" x2="435.29" y2="319" fill="none" stroke="#333f48" stroke-miterlimit="10"/><g><line x1="715.02" y1="349.33" x2="556.18" y2="349.33" fill="none" stroke="#333f48" stroke-miterlimit="10"/><polygon points="713.56 344.34 722.19 349.33 713.56 354.31 713.56 344.34" fill="#333f48"/></g><g><line x1="1057.3" y1="336.74" x2="926.26" y2="336.74" fill="none" stroke="#333f48" stroke-miterlimit="10"/><polygon points="1055.84 331.76 1064.47 336.74 1055.84 341.73 1055.84 331.76" fill="#333f48"/></g><g><line x1="1093.94" y1="446.4" x2="926.26" y2="446.4" fill="none" stroke="#333f48" stroke-miterlimit="10"/><polygon points="1092.48 441.41 1101.11 446.4 1092.48 451.38 1092.48 441.41" fill="#333f48"/></g><line x1="352.12" y1="338.62" x2="276.19" y2="338.62" fill="none" stroke="#333f48" stroke-miterlimit="10"/><g><polyline points="763.75 319 763.75 267.96 436.26 267.96" fill="none" stroke="#333f48" stroke-miterlimit="10"/><path d="M436.42,264.77c-1.76,0-3.2,1.43-3.2,3.2s1.43,3.2,3.2,3.2,3.2-1.43,3.2-3.2-1.43-3.2-3.2-3.2Z" fill="#333f48"/></g><line x1="1066.53" y1="174.66" x2="1066.53" y2="558.06" fill="none" stroke="#333f48" stroke-miterlimit="10"/><line x1="1101.11" y1="174.66" x2="1101.11" y2="558.06" fill="none" stroke="#333f48" stroke-miterlimit="10"/><line x1="841" y1="215.09" x2="841" y2="319" fill="none" stroke="#333f48" stroke-miterlimit="10"/><g><line x1="1011.56" y1="336.68" x2="1011.56" y2="446.45" fill="none" stroke="#333f48" stroke-miterlimit="10"/><path d="M1008.37,336.84c0-1.76,1.43-3.2,3.2-3.2s3.2,1.43,3.2,3.2-1.43,3.2-3.2,3.2-3.2-1.43-3.2-3.2Z" fill="#333f48"/><path d="M1008.37,446.3c0,1.76,1.43,3.2,3.2,3.2s3.2-1.43,3.2-3.2-1.43-3.2-3.2-3.2-3.2,1.43-3.2,3.2Z" fill="#333f48"/></g><polyline points="841 134.24 841 75.33 352.12 75.33" fill="none" stroke="#333f48" stroke-miterlimit="10"/><polyline points="454.15 461.93 454.15 502.96 824.23 502.96 824.23 461.93" fill="none" stroke="#333f48" stroke-miterlimit="10"/><line x1="352.12" y1="349.33" x2="276.19" y2="349.33" fill="none" stroke="#333f48" stroke-miterlimit="10"/><line x1="352.12" y1="360.03" x2="276.19" y2="360.03" fill="none" stroke="#333f48" stroke-miterlimit="10"/><line x1="352.12" y1="370.74" x2="276.19" y2="370.74" fill="none" stroke="#333f48" stroke-miterlimit="10"/><line x1="352.12" y1="381.45" x2="276.19" y2="381.45" fill="none" stroke="#333f48" stroke-miterlimit="10"/><line x1="352.12" y1="392.15" x2="276.19" y2="392.15" fill="none" stroke="#333f48" stroke-miterlimit="10"/><line x1="352.12" y1="402.86" x2="276.19" y2="402.86" fill="none" stroke="#333f48" stroke-miterlimit="10"/><line x1="352.12" y1="413.57" x2="276.19" y2="413.57" fill="none" stroke="#333f48" stroke-miterlimit="10"/><line x1="352.12" y1="424.27" x2="276.19" y2="424.27" fill="none" stroke="#333f48" stroke-miterlimit="10"/><line x1="352.12" y1="434.98" x2="276.19" y2="434.98" fill="none" stroke="#333f48" stroke-miterlimit="10"/><g><line x1="715.02" y1="407.75" x2="556.18" y2="407.75" fill="none" stroke="#333f48" stroke-miterlimit="10"/><polygon points="713.56 402.76 722.19 407.75 713.56 412.73 713.56 402.76" fill="#333f48"/></g><g><line x1="722.19" y1="439.82" x2="563.36" y2="439.82" fill="none" stroke="#333f48" stroke-miterlimit="10"/><polygon points="564.82 434.83 556.18 439.82 564.82 444.8 564.82 434.83" fill="#333f48"/></g><rect x="352.12" y="319" width="204.07" height="142.93" fill="#6faddf"/><rect x="72" y="319" width="204.07" height="142.93" fill="#e5eaed"/><g><rect x="1006.89" y="348.91" width="9.34" height="32.13" fill="#fff"/><path d="M1015.73,349.41v31.13h-8.34v-31.13h8.34m1-1h-10.34v33.13h10.34v-33.13h0Z" fill="#333f48"/></g><g><rect x="1006.89" y="403.83" width="9.34" height="32.13" fill="#fff"/><path d="M1015.73,404.33v31.13h-8.34v-31.13h8.34m1-1h-10.34v33.13h10.34v-33.13h0Z" fill="#333f48"/></g><rect x="948.9" y="398.16" width="23.72" height="10.34" fill="#333f48"/><g><path d="M428.77,381.32l2.66-.32c.08,.68,.31,1.19,.68,1.55s.82,.54,1.35,.54c.57,0,1.04-.21,1.43-.64s.58-1.01,.58-1.74c0-.69-.19-1.24-.56-1.64s-.82-.61-1.36-.61c-.35,0-.77,.07-1.26,.21l.3-2.24c.74,.02,1.31-.14,1.7-.48s.59-.8,.59-1.36c0-.48-.14-.87-.43-1.15s-.67-.43-1.14-.43-.87,.16-1.2,.49-.53,.8-.61,1.43l-2.53-.43c.18-.87,.44-1.56,.8-2.08s.85-.92,1.48-1.22,1.35-.44,2.13-.44c1.35,0,2.43,.43,3.24,1.29,.67,.7,1.01,1.5,1.01,2.38,0,1.26-.69,2.26-2.06,3.01,.82,.18,1.48,.57,1.97,1.18s.74,1.35,.74,2.22c0,1.26-.46,2.33-1.38,3.21s-2.06,1.33-3.43,1.33c-1.3,0-2.37-.37-3.22-1.12s-1.35-1.72-1.48-2.92Z"/><path d="M440.58,385.12v-2.74h2.74v2.74h-2.74Z"/><path d="M445.45,381.32l2.66-.32c.08,.68,.31,1.19,.68,1.55s.82,.54,1.35,.54c.57,0,1.04-.21,1.43-.64s.58-1.01,.58-1.74c0-.69-.19-1.24-.56-1.64s-.82-.61-1.36-.61c-.35,0-.77,.07-1.26,.21l.3-2.24c.74,.02,1.31-.14,1.7-.48s.59-.8,.59-1.36c0-.48-.14-.87-.43-1.15s-.67-.43-1.14-.43-.87,.16-1.2,.49-.53,.8-.61,1.43l-2.53-.43c.18-.87,.44-1.56,.8-2.08s.85-.92,1.48-1.22,1.35-.44,2.13-.44c1.35,0,2.43,.43,3.24,1.29,.67,.7,1.01,1.5,1.01,2.38,0,1.26-.69,2.26-2.06,3.01,.82,.18,1.48,.57,1.97,1.18s.74,1.35,.74,2.22c0,1.26-.46,2.33-1.38,3.21s-2.06,1.33-3.43,1.33c-1.3,0-2.37-.37-3.22-1.12s-1.35-1.72-1.48-2.92Z"/><path d="M466.49,385.12l-5.12-14.32h3.13l3.62,10.6,3.51-10.6h3.07l-5.13,14.32h-3.09Z"/><path d="M432.79,407.12v-14.32h4.33l2.6,9.77,2.57-9.77h4.34v14.32h-2.69v-11.27l-2.84,11.27h-2.78l-2.83-11.27v11.27h-2.69Z"/><path d="M458.65,401.86l2.8,.89c-.43,1.56-1.14,2.72-2.14,3.48s-2.27,1.14-3.8,1.14c-1.9,0-3.46-.65-4.69-1.95s-1.84-3.07-1.84-5.33c0-2.38,.62-4.23,1.85-5.55s2.85-1.98,4.85-1.98c1.75,0,3.17,.52,4.27,1.55,.65,.61,1.14,1.49,1.46,2.64l-2.86,.68c-.17-.74-.52-1.33-1.06-1.76s-1.19-.64-1.96-.64c-1.06,0-1.92,.38-2.58,1.14s-.99,2-.99,3.7c0,1.81,.33,3.1,.98,3.87s1.5,1.15,2.54,1.15c.77,0,1.43-.24,1.98-.73s.95-1.26,1.19-2.3Z"/><path d="M463.91,392.8h2.89v7.75c0,1.23,.04,2.03,.11,2.39,.12,.59,.42,1.06,.88,1.41s1.1,.53,1.91,.53,1.44-.17,1.86-.5,.67-.75,.75-1.24,.13-1.3,.13-2.43v-7.92h2.89v7.52c0,1.72-.08,2.93-.23,3.64s-.44,1.31-.86,1.8-.98,.88-1.68,1.17-1.62,.43-2.75,.43c-1.37,0-2.4-.16-3.11-.47s-1.26-.73-1.67-1.23-.68-1.03-.81-1.59c-.19-.82-.28-2.03-.28-3.63v-7.64Z"/></g><rect x="722.19" y="319" width="204.07" height="142.93" fill="#6faddf"/><g><path d="M813.18,379.86l2.8,.89c-.43,1.56-1.14,2.72-2.14,3.48s-2.27,1.14-3.8,1.14c-1.9,0-3.46-.65-4.69-1.95s-1.84-3.07-1.84-5.33c0-2.38,.62-4.23,1.85-5.55s2.85-1.98,4.85-1.98c1.75,0,3.17,.52,4.27,1.55,.65,.61,1.14,1.49,1.46,2.64l-2.86,.68c-.17-.74-.52-1.33-1.06-1.76s-1.19-.64-1.96-.64c-1.06,0-1.92,.38-2.58,1.14s-.99,2-.99,3.7c0,1.81,.33,3.1,.98,3.87s1.5,1.15,2.54,1.15c.77,0,1.43-.24,1.98-.73s.95-1.26,1.19-2.3Z"/><path d="M831.37,385.12h-3.14l-1.25-3.25h-5.72l-1.18,3.25h-3.07l5.58-14.32h3.06l5.73,14.32Zm-5.32-5.66l-1.97-5.31-1.93,5.31h3.91Z"/><path d="M832.93,385.12v-14.32h2.81l5.86,9.56v-9.56h2.69v14.32h-2.9l-5.77-9.34v9.34h-2.69Z"/><path d="M773.31,407.12v-11.89h-4.25v-2.42h11.38v2.42h-4.24v11.89h-2.89Z"/><path d="M783.81,407.12h-2.74v-10.37h2.55v1.47c.44-.7,.83-1.16,1.18-1.38s.74-.33,1.19-.33c.62,0,1.23,.17,1.81,.52l-.85,2.39c-.46-.3-.89-.45-1.29-.45s-.71,.11-.98,.32-.48,.59-.63,1.15-.23,1.71-.23,3.48v3.2Z"/><path d="M791.02,399.91l-2.49-.45c.28-1,.76-1.75,1.45-2.23s1.7-.72,3.05-.72c1.22,0,2.14,.14,2.73,.43s1.02,.66,1.26,1.1,.37,1.26,.37,2.46l-.03,3.2c0,.91,.04,1.58,.13,2.02s.25,.9,.49,1.39h-2.71c-.07-.18-.16-.45-.26-.81-.05-.16-.08-.27-.1-.32-.47,.46-.97,.8-1.5,1.03s-1.1,.34-1.71,.34c-1.07,0-1.91-.29-2.52-.87s-.92-1.31-.92-2.2c0-.59,.14-1.11,.42-1.57s.67-.81,1.18-1.05,1.23-.46,2.18-.64c1.28-.24,2.17-.47,2.67-.67v-.27c0-.53-.13-.9-.39-1.13s-.75-.34-1.47-.34c-.49,0-.87,.1-1.14,.29s-.5,.53-.66,1.01Zm3.67,2.23c-.35,.12-.91,.26-1.67,.42s-1.26,.32-1.49,.48c-.36,.25-.54,.58-.54,.97s.14,.72,.43,1,.65,.42,1.09,.42c.5,0,.97-.16,1.42-.49,.33-.25,.55-.55,.65-.91,.07-.23,.11-.68,.11-1.34v-.55Z"/><path d="M809.52,407.12h-2.74v-5.29c0-1.12-.06-1.84-.18-2.17s-.31-.58-.57-.77-.58-.27-.95-.27c-.48,0-.9,.13-1.28,.39s-.64,.61-.78,1.04-.21,1.22-.21,2.38v4.7h-2.74v-10.37h2.55v1.52c.91-1.17,2.04-1.76,3.42-1.76,.61,0,1.16,.11,1.66,.33s.88,.5,1.14,.83,.44,.72,.54,1.15,.15,1.04,.15,1.85v6.45Z"/><path d="M811.34,404.16l2.75-.42c.12,.53,.35,.94,.71,1.22s.86,.42,1.5,.42c.71,0,1.24-.13,1.6-.39,.24-.18,.36-.43,.36-.73,0-.21-.07-.38-.2-.52-.14-.13-.44-.25-.92-.36-2.21-.49-3.62-.93-4.21-1.34-.82-.56-1.23-1.34-1.23-2.33,0-.9,.35-1.65,1.06-2.27s1.81-.92,3.3-.92,2.47,.23,3.16,.69,1.17,1.15,1.43,2.05l-2.59,.48c-.11-.4-.32-.71-.63-.93s-.75-.32-1.32-.32c-.72,0-1.24,.1-1.55,.3-.21,.14-.31,.33-.31,.56,0,.2,.09,.36,.27,.5,.25,.18,1.1,.44,2.56,.77s2.48,.74,3.06,1.22c.57,.49,.86,1.17,.86,2.04,0,.95-.4,1.77-1.19,2.45s-1.97,1.03-3.53,1.03c-1.41,0-2.53-.29-3.35-.86s-1.36-1.35-1.62-2.33Z"/><path d="M832.47,399.82l-2.71,.49c-.09-.54-.3-.95-.62-1.22s-.74-.41-1.25-.41c-.68,0-1.23,.24-1.64,.71s-.61,1.26-.61,2.37c0,1.23,.21,2.1,.62,2.61s.97,.76,1.67,.76c.52,0,.95-.15,1.28-.44s.57-.81,.7-1.53l2.7,.46c-.28,1.24-.82,2.17-1.61,2.8s-1.86,.95-3.19,.95c-1.52,0-2.73-.48-3.63-1.44s-1.35-2.28-1.35-3.97,.45-3.04,1.36-4,2.13-1.43,3.67-1.43c1.26,0,2.27,.27,3.01,.82s1.28,1.37,1.61,2.49Z"/><path d="M840.56,403.82l2.73,.46c-.35,1-.91,1.77-1.67,2.29s-1.71,.79-2.85,.79c-1.8,0-3.14-.59-4-1.77-.68-.94-1.03-2.14-1.03-3.57,0-1.72,.45-3.06,1.35-4.04s2.03-1.46,3.41-1.46c1.54,0,2.76,.51,3.65,1.53s1.32,2.58,1.28,4.68h-6.88c.02,.81,.24,1.45,.66,1.9s.95,.68,1.58,.68c.43,0,.79-.12,1.08-.35s.51-.61,.66-1.13Zm.16-2.77c-.02-.79-.22-1.4-.62-1.81s-.87-.62-1.43-.62c-.6,0-1.09,.22-1.48,.65s-.58,1.03-.58,1.78h4.1Z"/><path d="M845.67,395.34v-2.54h2.74v2.54h-2.74Zm0,11.78v-10.37h2.74v10.37h-2.74Z"/><path d="M854.08,407.12l-4.18-10.37h2.88l1.95,5.29,.57,1.77c.15-.45,.24-.75,.28-.89,.09-.29,.19-.59,.29-.88l1.97-5.29h2.82l-4.12,10.37h-2.47Z"/><path d="M868.36,403.82l2.73,.46c-.35,1-.91,1.77-1.67,2.29s-1.71,.79-2.85,.79c-1.8,0-3.14-.59-4-1.77-.68-.94-1.03-2.14-1.03-3.57,0-1.72,.45-3.06,1.35-4.04s2.03-1.46,3.41-1.46c1.54,0,2.76,.51,3.65,1.53s1.32,2.58,1.28,4.68h-6.88c.02,.81,.24,1.45,.66,1.9s.95,.68,1.58,.68c.43,0,.79-.12,1.08-.35s.51-.61,.66-1.13Zm.16-2.77c-.02-.79-.22-1.4-.62-1.81s-.87-.62-1.43-.62c-.6,0-1.09,.22-1.48,.65s-.58,1.03-.58,1.78h4.1Z"/><path d="M876.1,407.12h-2.74v-10.37h2.55v1.47c.44-.7,.83-1.16,1.18-1.38s.74-.33,1.19-.33c.62,0,1.23,.17,1.81,.52l-.85,2.39c-.46-.3-.89-.45-1.29-.45s-.71,.11-.98,.32-.48,.59-.63,1.15-.23,1.71-.23,3.48v3.2Z"/></g><rect x="776.29" y="134.24" width="137.13" height="80.85" fill="#6faddf"/><text transform="translate(823.75 179.63)" font-family="Arial-BoldMT, Arial" font-size="20"><tspan x="0" y="0">LDO</tspan></text><rect x="366.72" y="134.24" width="137.13" height="80.85" fill="#6faddf"/><text transform="translate(414.18 179.63)" font-family="Arial-BoldMT, Arial" font-size="20"><tspan x="0" y="0">LDO</tspan></text><text transform="translate(119.6 395.97)" font-family="Arial-BoldMT, Arial" font-size="20"><tspan x="0" y="0">Application</tspan></text><text transform="translate(1043.04 161.46)" font-family="ArialMT, Arial" font-size="20"><tspan x="0" y="0">CAN Bus</tspan></text><text transform="translate(231.68 80.06)" font-family="ArialMT, Arial" font-size="16"><tspan x="0" y="0">V</tspan></text><text transform="translate(242.36 85.39) scale(.58)" font-family="ArialMT, Arial" font-size="16"><tspan x="0" y="0">B</tspan><tspan x="10.67" y="0" letter-spacing="-.07em">A</tspan><tspan x="20.16" y="0" letter-spacing="-.02em">T</tspan></text><text transform="translate(848.66 246.1)" font-family="ArialMT, Arial" font-size="16"><tspan x="0" y="0">5 V</tspan></text><text transform="translate(389.99 246.1)" font-family="ArialMT, Arial" font-size="16"><tspan x="0" y="0">3.3 V</tspan></text><text transform="translate(848.59 301.36)" font-family="ArialMT, Arial" font-size="16"><tspan x="0" y="0">V</tspan></text><text transform="translate(859.26 306.69) scale(.58)" font-family="ArialMT, Arial" font-size="16"><tspan x="0" y="0">CC</tspan></text><text transform="translate(771.8 301.36)" font-family="ArialMT, Arial" font-size="16"><tspan x="0" y="0">V</tspan></text><text transform="translate(782.48 306.69) scale(.58)" font-family="ArialMT, Arial" font-size="16"><tspan x="0" y="0">IO</tspan></text><text transform="translate(931.5 330.53)" font-family="ArialMT, Arial" font-size="16"><tspan x="0" y="0">CANH</tspan></text><text transform="translate(933.12 466.8)" font-family="ArialMT, Arial" font-size="16"><tspan x="0" y="0">CAN</tspan><tspan x="33.78" y="0" letter-spacing="-.04em">L</tspan></text><text transform="translate(648.52 527.06)" font-family="ArialMT, Arial" font-size="16"><tspan x="0" y="0">GND</tspan></text><text transform="translate(657.44 402.86)" font-family="ArialMT, Arial" font-size="16"><tspan x="0" y="0">TXD</tspan></text><text transform="translate(656.55 433.32)" font-family="ArialMT, Arial" font-size="16"><tspan x="0" y="0">RXD</tspan></text><text transform="translate(525.88 338.62)" font-family="ArialMT, Arial" font-size="16"><tspan x="0" y="0">I/O</tspan></text><g><g><line x1="627.33" y1="538.88" x2="651.05" y2="538.88" fill="none" stroke="#333f48" stroke-miterlimit="10"/><line x1="630.78" y1="543.36" x2="647.6" y2="543.36" fill="none" stroke="#333f48" stroke-miterlimit="10"/></g><line x1="639.19" y1="539" x2="639.19" y2="503.48" fill="none" stroke="#333f48" stroke-miterlimit="10"/></g><g><g><line x1="948.9" y1="426.98" x2="972.63" y2="426.98" fill="none" stroke="#333f48" stroke-miterlimit="10"/><line x1="952.36" y1="431.45" x2="969.17" y2="431.45" fill="none" stroke="#333f48" stroke-miterlimit="10"/><line x1="955.81" y1="435.92" x2="965.72" y2="435.92" fill="none" stroke="#333f48" stroke-miterlimit="10"/></g><g><line x1="960.76" y1="391.57" x2="1011.62" y2="391.57" fill="none" stroke="#333f48" stroke-miterlimit="10"/><circle cx="1011.46" cy="391.57" r="3.2" fill="#333f48"/></g><line x1="960.76" y1="427.1" x2="960.76" y2="391.57" fill="none" stroke="#333f48" stroke-miterlimit="10"/></g><g><line x1="269.27" y1="75.33" x2="352.63" y2="75.33" fill="none" stroke="#333f48" stroke-miterlimit="10"/><path d="M269.46,79.09c-2.08,0-3.76-1.68-3.76-3.76s1.68-3.76,3.76-3.76,3.76,1.68,3.76,3.76-1.68,3.76-3.76,3.76Z" fill="#333f48"/></g><g><polygon points="320.36 65.07 337.28 75.33 320.36 85.59 320.36 65.07" fill="#fff"/><path d="M320.86,65.96l15.46,9.37-15.46,9.37v-18.74m-1-1.78v22.29l18.39-11.15-18.39-11.15h0Z" fill="#333f48"/></g><line x1="337.1" y1="66.86" x2="337.1" y2="83.8" fill="none" stroke="#333f48" stroke-miterlimit="10"/></g></g></svg>